#!OML:ASF F:\VICON\USERDATA\INSTALL\rory3\rory3.ASF
:FULLY-SPECIFIED
:DEGREES
613
root -7.10893 17.7976 -0.0452766 20.2754 21.1477 4.86505
lowerback 12.8124 4.07798 0.718189
upperback 7.31105 5.60836 6.46695
thorax -0.0574403 2.74426 5.64714
lowerneck -8.74921 -12.9215 -9.53602
upperneck 28.67 -18.1006 7.03332
head 12.4942 -8.13918 1.6619
rclavicle 3.49861e-014 -3.18055e-015
rhumerus 17.6148 12.1013 -91.5618
rradius 33.0822
rwrist -3.90848
rhand -3.88543 -16.2432
rfingers 7.12502
rthumb 21.864 -45.028
lclavicle 3.49861e-014 -3.18055e-015
lhumerus -17.6252 -29.6798 89.6364
lradius 61.2268
lwrist 74.125
lhand -29.1747 45.6761
lfingers 7.12502
lthumb -2.5204 -284.359
rfemur -38.5253 -4.23548 7.841
rtibia 32.8146
rfoot -12.3381 -11.5887
rtoes 6.29163
lfemur -23.1694 -3.13655 -16.0997
ltibia 23.9224
lfoot -9.75936 11.8985
ltoes -25.6027
614
root -7.17023 17.7941 -0.00224487 20.5195 21.0083 5.18728
lowerback 12.7828 4.09676 0.78445
upperback 7.36163 5.63664 6.5227
thorax 0.0100165 2.7581 5.66988
lowerneck -8.80911 -13.035 -9.60537
upperneck 28.6436 -18.183 6.84074
head 12.4895 -8.20074 1.58355
rclavicle -2.38542e-014 1.27222e-014
rhumerus 17.7415 13.7648 -91.7447
rradius 32.8546
rwrist -4.35206
rhand -3.80038 -15.7451
rfingers 7.12502
rthumb 21.9456 -44.5203
lclavicle -2.38542e-014 1.27222e-014
lhumerus -17.8257 -28.0146 89.6763
lradius 60.6155
lwrist 74.2588
lhand -29.5132 46.5321
lfingers 7.12502
lthumb -2.84731 -283.507
rfemur -38.9283 -4.28184 7.75589
rtibia 33.2583
rfoot -12.3458 -11.3498
rtoes 6.76462
lfemur -23.0431 -3.13148 -16.1763
ltibia 23.4896
lfoot -9.30994 11.919
ltoes -26.3551
615
root -7.23371 17.7901 0.0429115 20.6994 20.9195 5.51974
lowerback 12.901 4.12662 0.863563
upperback 7.36436 5.68909 6.57213
thorax -0.0527321 2.78583 5.66249
lowerneck -8.69858 -13.1643 -9.83805
upperneck 28.5648 -18.3463 6.93037
head 12.4896 -8.28884 1.62872
rclavicle -1.22451e-013 -6.67916e-014
rhumerus 17.752 15.0212 -91.9224
rradius 32.7327
rwrist -4.34837
rhand -3.19212 -15.1798
rfingers 7.12502
rthumb 22.5296 -43.8853
lclavicle -1.22451e-013 -6.67916e-014
lhumerus -18.0443 -26.4863 89.6832
lradius 59.8624
lwrist 73.851
lhand -28.7872 47.3034
lfingers 7.12502
lthumb -2.14617 -282.728
rfemur -39.1866 -4.26965 7.65329
rtibia 33.6593
rfoot -12.5124 -11.1641
rtoes 7.28859
lfemur -22.8628 -3.17164 -16.2327
ltibia 23.1367
lfoot -8.99111 11.9008
ltoes -26.8842
616
root -7.2964 17.7886 0.0847372 20.9087 20.986 5.86899
lowerback 13.0751 4.0884 1.05318
upperback 7.3221 5.6677 6.56571
thorax -0.170176 2.78075 5.53787
lowerneck -8.80473 -13.2966 -9.88117
upperneck 28.6339 -18.5174 6.90397
head 12.5592 -8.36216 1.58647
rclavicle -4.45278e-014 -6.04305e-014
rhumerus 17.7468 15.8672 -92.3014
rradius 32.7368
rwrist -4.06837
rhand -2.52548 -14.9038
rfingers 7.12502
rthumb 23.1693 -43.5304
lclavicle -4.45278e-014 -6.04305e-014
lhumerus -18.3136 -25.2903 89.62
lradius 59.2674
lwrist 73.2554
lhand -28.0302 47.8877
lfingers 7.12502
lthumb -1.41507 -282.137
rfemur -39.3819 -4.42379 7.61351
rtibia 34.0322
rfoot -12.6825 -10.9556
rtoes 6.6303
lfemur -22.7676 -3.2404 -16.2801
ltibia 22.8458
lfoot -8.66355 11.7527
ltoes -26.994
617
root -7.3565 17.7859 0.128011 21.1158 21.1626 6.11674
lowerback 13.1557 4.00765 1.37689
upperback 7.23797 5.60512 6.58453
thorax -0.268093 2.75803 5.3752
lowerneck -8.71662 -13.3668 -9.96089
upperneck 28.6866 -18.6359 6.99092
head 12.5954 -8.4102 1.61408
rclavicle -2.22639e-014 -1.90833e-014
rhumerus 17.7081 16.4162 -92.8062
rradius 32.6807
rwrist -3.78167
rhand -1.84354 -14.6865
rfingers 7.12502
rthumb 23.8235 -43.2293
lclavicle -2.22639e-014 -1.90833e-014
lhumerus -18.7126 -24.7057 89.6559
lradius 59.1888
lwrist 74.163
lhand -28.4186 46.4583
lfingers 7.12502
lthumb -1.79017 -283.569
rfemur -39.5499 -4.62641 7.69588
rtibia 34.3676
rfoot -12.8557 -10.819
rtoes 6.50186
lfemur -22.748 -3.45938 -16.1785
ltibia 22.5977
lfoot -8.42146 11.7202
ltoes -26.4249
618
root -7.4135 17.7833 0.172583 21.251 21.2958 6.27255
lowerback 13.1845 3.92715 1.70741
upperback 7.18597 5.54178 6.65435
thorax -0.30887 2.73377 5.2685
lowerneck -8.41452 -13.3473 -10.0003
upperneck 28.6128 -18.6102 6.99944
head 12.5071 -8.41286 1.65096
rclavicle -2.38542e-014 3.18055e-015
rhumerus 17.6811 17.0357 -93.1936
rradius 32.6586
rwrist -3.74704
rhand -1.50237 -14.7332
rfingers 7.12502
rthumb 24.1506 -43.2329
lclavicle -2.38542e-014 3.18055e-015
lhumerus -19.1727 -24.2591 89.7474
lradius 59.3491
lwrist 75.4357
lhand -28.7048 44.3756
lfingers 7.12502
lthumb -2.06662 -285.655
rfemur -39.6721 -4.67008 7.81295
rtibia 34.6864
rfoot -13.1509 -10.7067
rtoes 7.28162
lfemur -22.6913 -3.59499 -16.0322
ltibia 22.3679
lfoot -8.24015 11.776
ltoes -25.7791
619
root -7.46817 17.7867 0.215269 21.3831 21.3349 6.41368
lowerback 13.3097 3.85593 1.9768
upperback 7.07232 5.49282 6.72016
thorax -0.473157 2.71537 5.18048
lowerneck -8.28387 -13.3287 -10.0016
upperneck 28.7035 -18.5537 6.85359
head 12.4944 -8.40389 1.6175
rclavicle -3.18055e-015 -1.11319e-013
rhumerus 17.4436 17.672 -93.4749
rradius 32.913
rwrist -3.92285
rhand -1.37307 -15.0538
rfingers 7.12502
rthumb 24.2746 -43.537
lclavicle -3.18055e-015 -1.11319e-013
lhumerus -19.6454 -23.6894 89.8225
lradius 59.2558
lwrist 75.6179
lhand -29.1905 45.5887
lfingers 7.12502
lthumb -2.53565 -284.447
rfemur -39.8208 -4.64531 7.91064
rtibia 34.9931
rfoot -13.3632 -10.6642
rtoes 6.73411
lfemur -22.6274 -3.70954 -15.9176
ltibia 22.1864
lfoot -8.15176 11.9346
ltoes -25.5452
620
root -7.51909 17.7899 0.257908 21.6077 21.2564 6.66101
lowerback 13.488 3.82709 2.10306
upperback 6.86623 5.49078 6.72885
thorax -0.775232 2.71754 5.0975
lowerneck -8.16014 -13.3955 -10.0149
upperneck 28.7213 -18.6157 6.71572
head 12.4683 -8.45022 1.56785
rclavicle -6.67916e-014 -2.22639e-014
rhumerus 17.1661 17.9828 -93.8337
rradius 33.0031
rwrist -3.99948
rhand -1.02912 -15.1307
rfingers 7.12502
rthumb 24.6043 -43.5695
lclavicle -6.67916e-014 -2.22639e-014
lhumerus -20.1308 -23.2929 89.9468
lradius 59.229
lwrist 75.9164
lhand -29.3465 46.6069
lfingers 7.12502
lthumb -2.68632 -283.43
rfemur -40.0763 -4.778 7.93894
rtibia 35.2978
rfoot -13.3665 -10.4452
rtoes 6.06453
lfemur -22.6026 -3.8699 -15.9495
ltibia 22.0154
lfoot -7.87247 12.2209
ltoes -25.7762
621
root -7.56986 17.7868 0.298987 21.7532 21.0987 6.8404
lowerback 13.6581 3.81141 2.28158
upperback 6.74458 5.50629 6.72269
thorax -0.978653 2.72832 4.97181
lowerneck -8.05607 -13.4679 -10.0738
upperneck 28.697 -18.7214 6.74091
head 12.4585 -8.50269 1.57468
rclavicle -4.77083e-015 -1.27222e-014
rhumerus 17.0255 18.027 -94.2095
rradius 33.0171
rwrist -3.85132
rhand -0.725082 -15.005
rfingers 7.12502
rthumb 24.8957 -43.4037
lclavicle -4.77083e-015 -1.27222e-014
lhumerus -20.4034 -23.0626 90.0561
lradius 59.2935
lwrist 76.8527
lhand -28.5292 45.2247
lfingers 7.12502
lthumb -1.89705 -284.804
rfemur -40.3126 -4.84553 8.02275
rtibia 35.6077
rfoot -13.4052 -10.208
rtoes 5.98382
lfemur -22.5326 -4.01307 -15.9297
ltibia 21.8802
lfoot -7.50472 12.5157
ltoes -26.0952
622
root -7.62003 17.7862 0.338497 21.9185 20.8493 7.10369
lowerback 13.7219 3.79757 2.25892
upperback 6.71679 5.49094 6.75809
thorax -1.04645 2.71954 5.0192
lowerneck -8.06613 -13.4894 -10.1913
upperneck 28.7535 -18.7076 6.64717
head 12.4849 -8.51518 1.55796
rclavicle 7.95139e-015 1.27222e-014
rhumerus 16.9819 18.1798 -94.372
rradius 33.1862
rwrist -4.09425
rhand -0.513031 -14.7791
rfingers 7.12502
rthumb 25.0989 -43.1496
lclavicle 7.95139e-015 1.27222e-014
lhumerus -20.5877 -22.8678 90.2401
lradius 59.3314
lwrist 77.4058
lhand -28.3133 44.3721
lfingers 7.12502
lthumb -1.68846 -285.655
rfemur -40.5783 -4.79952 7.95878
rtibia 35.9142
rfoot -13.4398 -10.0547
rtoes 5.84829
lfemur -22.4585 -4.08204 -16.0452
ltibia 21.7574
lfoot -7.26175 12.8947
ltoes -25.8984
623
root -7.67102 17.7849 0.377838 21.9447 20.5229 7.3046
lowerback 13.8793 3.83035 2.24333
upperback 6.76244 5.53583 6.74323
thorax -1.08569 2.74066 4.9974
lowerneck -8.2321 -13.5079 -9.8929
upperneck 28.6918 -18.6747 6.30839
head 12.4134 -8.50665 1.38997
rclavicle -4.6118e-014 -4.77083e-014
rhumerus 16.9916 18.1561 -94.4564
rradius 33.503
rwrist -4.39173
rhand -0.146226 -14.8631
rfingers 7.12502
rthumb 25.4503 -43.1839
lclavicle -4.6118e-014 -4.77083e-014
lhumerus -20.5999 -22.9289 90.3053
lradius 59.0822
lwrist 77.0428
lhand -28.9863 45.4156
lfingers 7.12502
lthumb -2.33846 -284.617
rfemur -40.722 -4.59943 7.88725
rtibia 36.189
rfoot -13.5313 -9.80186
rtoes 6.68614
lfemur -22.2334 -4.18027 -16.1013
ltibia 21.6425
lfoot -7.21461 13.3371
ltoes -25.2109
